<svg width="80" height="40" viewBox="0 0 309 112" fill="none" xmlns="http://www.w3.org/2000/svg">
<path d="M50.5 9.4641C54.2128 7.32051 58.7872 7.32051 62.5 9.4641L93.8013 27.5359C97.5141 29.6795 99.8013 33.641 99.8013 37.9282V74.0718C99.8013 78.359 97.5141 82.3205 93.8013 84.4641L62.5 102.536C58.7872 104.679 54.2128 104.679 50.5 102.536L19.1987 84.4641C15.4859 82.3205 13.1987 78.359 13.1987 74.0718V37.9282C13.1987 33.641 15.4859 29.6795 19.1987 27.5359L50.5 9.4641Z" fill="#731DD8"/>
<g filter="url(#filter0_d_15_52)">
<path d="M53.4999 29.9542C55.3564 28.8824 57.6435 28.8824 59.4999 29.9542L77.5562 40.379C79.4126 41.4508 80.5562 43.4316 80.5562 45.5752V66.4247C80.5562 68.5683 79.4126 70.5491 77.5562 71.6209L59.4999 82.0457C57.6435 83.1175 55.3564 83.1175 53.4999 82.0457L35.4437 71.6209C33.5873 70.5491 32.4437 68.5683 32.4437 66.4247V45.5752C32.4437 43.4316 33.5873 41.4508 35.4437 40.379L53.4999 29.9542Z" fill="white"/>
</g>
<path d="M139.596 82L117.852 31.6H130.452L149.46 76.24H142.044L161.34 31.6H172.932L151.116 82H139.596ZM177.14 82V31.6H188.804V82H177.14ZM223.157 82.864C216.005 82.864 210.413 80.872 206.381 76.888C202.349 72.904 200.333 67.216 200.333 59.824V31.6H211.997V59.392C211.997 64.192 212.981 67.648 214.949 69.76C216.917 71.872 219.677 72.928 223.229 72.928C226.781 72.928 229.541 71.872 231.509 69.76C233.477 67.648 234.461 64.192 234.461 59.392V31.6H245.981V59.824C245.981 67.216 243.965 72.904 239.933 76.888C235.901 80.872 230.309 82.864 223.157 82.864ZM251.044 82L272.716 52.12V60.616L251.98 31.6H265.228L279.556 51.832L274.012 51.904L288.124 31.6H300.796L280.204 60.112V51.76L302.02 82H288.556L273.724 60.616H279.052L264.436 82H251.044Z" fill="#731DD8"/>
<defs>
<filter id="filter0_d_15_52" x="26.4437" y="23.1504" width="60.1124" height="65.6991" filterUnits="userSpaceOnUse" color-interpolation-filters="sRGB">
<feFlood flood-opacity="0" result="BackgroundImageFix"/>
<feColorMatrix in="SourceAlpha" type="matrix" values="0 0 0 0 0 0 0 0 0 0 0 0 0 0 0 0 0 0 127 0" result="hardAlpha"/>
<feOffset/>
<feGaussianBlur stdDeviation="3"/>
<feComposite in2="hardAlpha" operator="out"/>
<feColorMatrix type="matrix" values="0 0 0 0 0 0 0 0 0 0 0 0 0 0 0 0 0 0 0.25 0"/>
<feBlend mode="normal" in2="BackgroundImageFix" result="effect1_dropShadow_15_52"/>
<feBlend mode="normal" in="SourceGraphic" in2="effect1_dropShadow_15_52" result="shape"/>
</filter>
</defs>
</svg>
